<svg xmlns="http://www.w3.org/2000/svg" width="32" height="32" fill="white" class="bi bi-diagram-3" viewBox="0 0 16 16">
    <path fill-rule="evenodd" d="M8 2.75a.75.75 0 0 0-1.5 0v.75H4a.5.5 0 0 0-.5.5v2.35A2 2 0 0 0 0 8.5a2 2 0 1 0 2 1.965V10h12v.465a2 2 0 1 0 2-1.965 2 2 0 0 0-2-2.1v-2.35a.5.5 0 0 0-.5-.5h-2.5v-.75a.75.75 0 0 0-1.5 0v.75H9v-.75zm-5.5 8.5a.5.5 0 1 1 1 0v1.25H7v-1.25a.5.5 0 1 1 1 0v1.25h1.5v-1.25a.5.5 0 1 1 1 0v1.25H14v-1.25a.5.5 0 1 1 1 0v1.25a2 2 0 1 1-4 0v-1.25h-1v1.25a2 2 0 1 1-4 0v-1.25h-1v1.25a2 2 0 1 1-4 0v-1.25h2V11.5a.5.5 0 1 1 1 0v1.25zm5-6.25H8V9.5H7V6H8V4.5h3v2H9v1.5z"/>
</svg>
